<svg width="28" height="28" viewBox="0 0 28 28" fill="none" xmlns="http://www.w3.org/2000/svg">
<path fill-rule="evenodd" clip-rule="evenodd" d="M7.64625 1.87344C8.29561 1.54878 9.07032 1.16699 10.5013 1.16699C11.9322 1.16699 12.707 1.54875 13.3564 1.87341L13.3749 1.88271C13.8831 2.13685 14.2765 2.33355 15.168 2.33358C16.6113 2.33364 17.4661 1.79549 17.7511 1.5813C18.1948 1.24787 18.719 1.27598 19.0809 1.44338C19.4474 1.61293 19.8346 2.01748 19.8346 2.61539V15.167H23.3346C25.2669 15.167 26.8346 16.7321 26.8346 18.6658V22.167C26.8346 23.2462 26.5615 24.1331 26.0918 24.8376C25.627 25.5348 25.0156 25.985 24.4397 26.273C23.8684 26.5587 23.3112 26.6956 22.9066 26.7631C22.6637 26.8036 22.4148 26.8341 22.168 26.8337H5.83464C4.75549 26.8337 3.86857 26.5605 3.16404 26.0908C2.46683 25.626 2.01659 25.0146 1.72863 24.4387C1.44298 23.8674 1.30595 23.3102 1.23853 22.9057C1.20436 22.7006 1.18682 22.5273 1.17777 22.4006C1.17023 22.295 1.168 22.2324 1.16797 22.167V2.61536C1.16797 2.01748 1.55512 1.61293 1.92171 1.44338C2.28363 1.27597 2.80785 1.24785 3.25151 1.58126C3.53652 1.79545 4.39134 2.33358 5.83464 2.33358C6.72614 2.33358 7.11946 2.13689 7.62766 1.88274L7.64625 1.87344ZM3.50518 22.167L3.5013 4.29799C4.13151 4.51039 4.90984 4.66691 5.83464 4.66691C7.26562 4.66691 8.04032 4.28513 8.68969 3.96047L8.70828 3.95117C9.21648 3.69703 9.60979 3.50033 10.5013 3.50033C11.3928 3.50033 11.7862 3.69701 12.2944 3.95116L12.3129 3.96045C12.9623 4.2851 13.7369 4.66688 15.168 4.66691C16.0928 4.66695 16.8711 4.51044 17.5013 4.29801V22.167C17.5013 23.0805 17.6971 23.8563 18.0421 24.5003H5.83464C5.16378 24.5003 4.7382 24.3359 4.45835 24.1494C4.17119 23.9579 3.96518 23.6944 3.81564 23.3953C3.6638 23.0916 3.58207 22.7738 3.54012 22.5221C3.5204 22.4037 3.50844 22.2865 3.50518 22.167ZM22.5231 24.4615C22.7748 24.4196 23.0926 24.3378 23.3962 24.186C23.6954 24.0365 23.9589 23.8304 24.1504 23.5433C24.3369 23.2634 24.5013 22.8378 24.5013 22.167V18.6658C24.5013 18.0223 23.9797 17.5003 23.3346 17.5003H19.8346V22.167C19.8346 22.8378 19.999 23.2634 20.1856 23.5433C20.377 23.8304 20.6406 24.0365 20.9397 24.186C21.2434 24.3378 21.5612 24.4196 21.813 24.4615C21.936 24.482 22.036 24.4918 22.1007 24.4965C22.2414 24.5065 22.3846 24.4846 22.5231 24.4615Z" fill="#B04C00"/>
<path d="M5.83203 9.33366C5.83203 8.68933 6.35437 8.16699 6.9987 8.16699H13.9987C14.643 8.16699 15.1654 8.68933 15.1654 9.33366C15.1654 9.978 14.643 10.5003 13.9987 10.5003H6.9987C6.35437 10.5003 5.83203 9.978 5.83203 9.33366Z" fill="#B04C00"/>
<path d="M5.83203 13.9997C5.83203 13.3553 6.35437 12.833 6.9987 12.833H13.9987C14.643 12.833 15.1654 13.3553 15.1654 13.9997C15.1654 14.644 14.643 15.1663 13.9987 15.1663H6.9987C6.35437 15.1663 5.83203 14.644 5.83203 13.9997Z" fill="#B04C00"/>
<path d="M5.83203 18.6667C5.83203 18.0223 6.35437 17.5 6.9987 17.5H13.9987C14.643 17.5 15.1654 18.0223 15.1654 18.6667C15.1654 19.311 14.643 19.8333 13.9987 19.8333H6.9987C6.35437 19.8333 5.83203 19.311 5.83203 18.6667Z" fill="#B04C00"/>
</svg>
