<svg width="30" height="30" viewBox="0 0 30 30" fill="none" xmlns="http://www.w3.org/2000/svg">
<path d="M24.2864 2.14258H24.0966C23.2057 2.14258 22.3807 2.64385 21.8894 3.48291C21.7089 3.78789 21.2363 3.82656 21.0116 3.5541C20.264 2.64385 19.2711 2.14258 18.2097 2.14258C17.1556 2.14258 16.163 2.64385 15.4145 3.5541C15.21 3.80254 14.7919 3.8043 14.5862 3.55352C13.8377 2.64385 12.8451 2.14258 11.791 2.14258C10.7369 2.14258 9.74434 2.64385 8.9958 3.5541C8.77139 3.82891 8.29883 3.79111 8.11836 3.48291C7.62617 2.64385 6.80117 2.14258 5.91055 2.14258H5.69873C4.325 2.14258 3.20703 3.26055 3.20703 4.63428V25.365C3.20703 26.7388 4.325 27.8567 5.69873 27.8567H5.91055C6.80088 27.8567 7.62588 27.3555 8.11894 26.5152C8.29678 26.2097 8.77022 26.1698 8.9958 26.4455C9.74434 27.3552 10.7369 27.8564 11.791 27.8564C12.8451 27.8564 13.8377 27.3552 14.5862 26.4449C14.7919 26.1953 15.21 26.1959 15.4145 26.4455C16.163 27.3552 17.1556 27.8564 18.217 27.8564C19.2711 27.8564 20.2643 27.3552 21.0113 26.4461C21.2378 26.1725 21.7112 26.2117 21.8891 26.5152C22.381 27.3555 23.206 27.8567 24.0969 27.8567H24.2867C25.6604 27.8567 26.7784 26.7388 26.7784 25.365V4.63457C26.7784 3.26055 25.6602 2.14258 24.2864 2.14258ZM24.6354 25.365C24.6354 25.5575 24.4789 25.714 24.2864 25.714H24.0966C23.9167 25.714 23.777 25.4989 23.7383 25.4324C23.259 24.6147 22.3728 24.1067 21.4259 24.1067C20.6223 24.1067 19.8685 24.463 19.3563 25.085C19.1633 25.3199 18.7584 25.7137 18.2097 25.7137C17.6683 25.7137 17.2628 25.3193 17.0697 25.085C16.049 23.8413 13.9528 23.841 12.931 25.0844C12.7379 25.3193 12.3324 25.7137 11.791 25.7137C11.2496 25.7137 10.8441 25.3193 10.6511 25.085C10.1404 24.463 9.38603 24.1067 8.58213 24.1067C7.63408 24.1067 6.74785 24.6153 6.26973 25.4324C6.23105 25.4983 6.09072 25.714 5.91084 25.714H5.69902C5.50654 25.714 5.3501 25.5575 5.3501 25.365V4.63457C5.3501 4.44209 5.50654 4.28564 5.69902 4.28564H5.91084C6.09072 4.28564 6.23105 4.50127 6.26914 4.56602C6.74785 5.38428 7.63408 5.89287 8.58213 5.89287C9.38633 5.89287 10.1407 5.53662 10.6511 4.91494C10.8441 4.67998 11.2496 4.28564 11.791 4.28564C12.3324 4.28564 12.7379 4.67998 12.931 4.91436C13.9528 6.15889 16.049 6.15742 17.0697 4.91494C17.2628 4.67998 17.6683 4.28564 18.217 4.28564C18.7584 4.28564 19.1633 4.67969 19.3569 4.91553C19.8685 5.53662 20.6226 5.89287 21.4259 5.89287C22.3728 5.89287 23.259 5.38486 23.7389 4.56602C23.777 4.50068 23.9167 4.28564 24.0966 4.28564H24.2864C24.4789 4.28564 24.6354 4.44209 24.6354 4.63457V25.365Z" fill="white"/>
<path d="M7.49482 10.707H22.4948V12.8498H7.49482V10.707ZM7.49219 16.0607H18.2063V18.2105H7.49219V16.0607Z" fill="white"/>
</svg>
