<svg width="20" height="20" viewBox="0 0 20 20" fill="none" xmlns="http://www.w3.org/2000/svg">
<path fill-rule="evenodd" clip-rule="evenodd" d="M10.0052 1.04102C7.81908 1.04102 6.04688 2.81322 6.04688 4.99935C6.04688 7.18547 7.81908 8.95768 10.0052 8.95768C12.1913 8.95768 13.9635 7.18547 13.9635 4.99935C13.9635 2.81322 12.1913 1.04102 10.0052 1.04102ZM7.29687 4.99935C7.29687 3.50357 8.50943 2.29102 10.0052 2.29102C11.501 2.29102 12.7135 3.50357 12.7135 4.99935C12.7135 6.49512 11.501 7.70768 10.0052 7.70768C8.50943 7.70768 7.29687 6.49512 7.29687 4.99935Z" fill="#9747FF"/>
<path fill-rule="evenodd" clip-rule="evenodd" d="M10.0027 10.209C8.07475 10.209 6.29849 10.6472 4.98225 11.3876C3.68562 12.117 2.71104 13.2224 2.71104 14.584L2.71099 14.669C2.71005 15.6372 2.70887 16.8523 3.77473 17.7202C4.29929 18.1474 5.03311 18.4512 6.02455 18.6519C7.01877 18.8531 8.31457 18.959 10.0027 18.959C11.6909 18.959 12.9867 18.8531 13.9809 18.6519C14.9724 18.4512 15.7062 18.1474 16.2307 17.7202C17.2965 16.8523 17.2954 15.6372 17.2944 14.669L17.2944 14.584C17.2944 13.2224 16.3199 12.117 15.0232 11.3876C13.7069 10.6472 11.9307 10.209 10.0027 10.209ZM3.96104 14.584C3.96104 13.8746 4.47886 13.1049 5.59509 12.4771C6.69171 11.8602 8.24878 11.459 10.0027 11.459C11.7567 11.459 13.3137 11.8602 14.4104 12.4771C15.5266 13.1049 16.0444 13.8746 16.0444 14.584C16.0444 15.6738 16.0108 16.2873 15.4414 16.751C15.1326 17.0025 14.6164 17.2479 13.7329 17.4267C12.8521 17.605 11.6479 17.709 10.0027 17.709C8.35752 17.709 7.15333 17.605 6.27254 17.4267C5.38899 17.2479 4.87281 17.0025 4.56404 16.751C3.99464 16.2873 3.96104 15.6738 3.96104 14.584Z" fill="#4E4E4E"/>
</svg>
